# xmcd
#
# Track frame offsets: 
#        150
#        28058
#        45481
#        67791
#        97056
#        124388
#        151097
#        178900
#
# Disc length: 2819 seconds
#
# Revision: 1
# Processed by: cddbd v1.5.2PL0 Copyright (c) Steve Scherf et al.
# Submitted via: ExactAudioCopy v0.90b4
#
DISCID=650b0108
DTITLE=Preservation Hall Jazz Band - Shake That Thing [Digipack]
DYEAR=2001
DGENRE=Jazz
TTITLE0=His Eye Is On the Sparrow
TTITLE1=Eh La Bas
TTITLE2=Careless Love
TTITLE3=Shake That Thing
TTITLE4=Just A Closer Walk With Thee
TTITLE5=Little Liza Jane
TTITLE6=That Bucket's Got A Hole in It
TTITLE7=Back Porch
EXTD=YEAR: 2004
EXTT0=
EXTT1=
EXTT2=
EXTT3=
EXTT4=
EXTT5=
EXTT6=
EXTT7=
PLAYORDER=
